<svg width="18" height="18" viewBox="0 0 18 18" xmlns="http://www.w3.org/2000/svg"><title>LinkedIn Icon</title><g id="linkedin"><path d="M15.34 15.34h-2.67v-4.18c0-1-.02-2.28-1.39-2.28-1.39 0-1.6 1.09-1.6 2.21v4.25H7.02V6.75h2.55v1.17h.04c.36-.67 1.23-1.39 2.53-1.39 2.7 0 3.2 1.78 3.2 4.1v4.71zM4.01 5.57a1.544 1.544 0 1 1 1.54-1.54c0 .85-.69 1.54-1.54 1.54zm-1.34 9.77V6.75h2.67v8.59H2.67zM16.67 0H1.33C.6 0 0 .58 0 1.3v15.4c0 .72.6 1.3 1.33 1.3h15.34c.73 0 1.33-.58 1.33-1.3V1.3c0-.72-.6-1.3-1.33-1.3z" id="Shape"/></g></svg>