<svg width="18" height="18" viewBox="0 0 18 18" xmlns="http://www.w3.org/2000/svg"><title>Twitter Icon</title><path d="M5.661 16.629c6.793 0 10.508-5.628 10.508-10.508 0-.16-.004-.319-.011-.477A7.503 7.503 0 0 0 18 3.732a7.351 7.351 0 0 1-2.12.581 3.703 3.703 0 0 0 1.623-2.043 7.382 7.382 0 0 1-2.345.896 3.693 3.693 0 0 0-6.293 3.368 10.486 10.486 0 0 1-7.612-3.858c-.317.546-.5 1.18-.5 1.857a3.69 3.69 0 0 0 1.643 3.073 3.67 3.67 0 0 1-1.672-.462l-.001.047a3.695 3.695 0 0 0 2.963 3.621 3.72 3.72 0 0 1-1.668.063 3.7 3.7 0 0 0 3.45 2.566A7.414 7.414 0 0 1 0 14.97a10.456 10.456 0 0 0 5.661 1.659" id="Fill-1"/></svg>