<svg width="18" height="18" viewBox="0 0 18 18" xmlns="http://www.w3.org/2000/svg"><title>Link Icon</title><path d="M17.118 17.12c-.58.59-1.35.88-2.12.88s-1.54-.29-2.12-.88l-2.83-2.83c-.79-.79-1.04-1.9-.78-2.9l.91.91c.03.49.23.94.58 1.29l2.83 2.82c.37.38.88.59 1.41.59.53 0 1.04-.21 1.41-.59.78-.78.78-2.04 0-2.82l-2.82-2.83c-.35-.35-.8-.55-1.29-.58l-.91-.91c.25-.07.52-.1.78-.1.77 0 1.54.29 2.12.88l2.83 2.83a3 3 0 0 1 0 4.24zm-11.42-9.3l.91.91c-.25.07-.52.1-.78.1-.77 0-1.54-.29-2.12-.88L.878 5.12a3 3 0 0 1 0-4.24C1.458.29 2.228 0 2.998 0s1.54.29 2.12.88l2.83 2.83c.79.79 1.04 1.9.78 2.9l-.91-.91c-.03-.49-.23-.94-.58-1.29l-2.83-2.82c-.37-.38-.88-.59-1.41-.59-.53 0-1.04.21-1.41.59-.78.78-.78 2.04 0 2.82l2.82 2.83c.35.35.8.55 1.29.58zm-1.3-2.71a.513.513 0 0 1 0-.71c.2-.19.52-.19.71 0l8.49 8.49c.19.19.19.51 0 .71a.519.519 0 0 1-.71 0l-8.49-8.49z" id="Shape"/></svg>