<svg id="logo_1_" xmlns="http://www.w3.org/2000/svg" viewBox="0 0 55 24"><title>ivoh</title><path id="shape" d="M6.5 23.6H0v-.8l1.7-.3V12.2c0-1.3-.6-1.6-1.7-1.6v-.8l4.8-1.4v14.1l1.7.3v.8zM1.3 3.7c0-1.1.9-1.9 1.9-1.9s1.9.8 1.9 1.9c0 1.1-.9 1.9-1.9 1.9s-1.9-.7-1.9-1.9zm6.3 6.7v-.9l3.7-1.2 4.4 11.9 3.4-7.5c-.9-.4-1.8-1.3-1.8-2.4 0-1.1.7-2 1.9-2s1.9.9 1.9 2c0 1-.4 2.1-1 3.3l-4.8 10.1H14L9 11.3c-.1-.6-.5-.9-1.4-.9zm22.6 12.5c2.5 0 3.1-4 3.1-6.7 0-4.4-.9-6.8-3.1-6.8S27 11.7 27 16.2c0 4.2.7 6.7 3.2 6.7zm0 1.1c-4.1 0-6.7-3.3-6.7-7.8 0-4.2 2.7-7.8 6.7-7.8s6.7 3.7 6.7 7.8c-.1 3.5-2.6 7.8-6.7 7.8zm24.8-.4h-6.5v-.8l1.7-.3v-9.2c0-2.3-1.7-3.2-3-3.2-1.5 0-2.8 1.1-2.8 1.6v10.8l1.5.3v.8h-6.3v-.8l1.7-.3V4c0-1-.6-1.3-1.7-1.3v-.8L44.4 0v10.2c1.2-1.2 2.7-1.8 4.1-1.8 1.9 0 4.9 1.2 4.9 4.9v9.2l1.7.3v.8z"/></svg>