<svg xmlns="http://www.w3.org/2000/svg"><symbol id="icon-arrow-dropdown" viewBox="0 0 18 18"><title>Dropdown Arrow Icon</title><path id="Shape" d="M1 1l8 16 8-16z"/></symbol><symbol id="icon-arrow" viewBox="0 0 18 18"><title>Arrow Icon</title><path id="Shape" d="M8.08 0l8.5 8.5H0v1h16.58L8.08 18H9.5L18 9.5v-1L9.5 0z"/></symbol><symbol id="icon-checkmark" viewBox="0 0 18 18"><title>Checkmark Icon</title><path id="Shape" d="M17.3 4L5.351 15.949.699 11.3 0 12l5.351 5.35L18 4.699z"/></symbol><symbol id="icon-downloadable" viewBox="0 0 18 18"><title>Downloadable Icon</title><path d="M17 9h1v9H0V9h1v8h16V9zM8.5 0h1v13.58l4.59-4.59v1.42L9.5 15h-1l-4.59-4.59V8.99l4.59 4.59V0z" id="Shape"/></symbol><symbol id="icon-facebook" viewBox="0 0 18 18"><title>Facebook Icon</title><path d="M17.007 0H.993A.993.993 0 0 0 0 .993v16.014c0 .548.445.993.993.993h8.621v-6.97H7.27V8.312h2.345V6.31c0-2.325 1.42-3.591 3.494-3.591.994 0 1.848.074 2.096.107v2.43h-1.438c-1.128 0-1.346.536-1.346 1.322v1.735h2.69l-.35 2.716h-2.34V18h4.587a.993.993 0 0 0 .993-.993V.993A.993.993 0 0 0 17.007 0" id="Fill-1"/></symbol><symbol id="icon-link" viewBox="0 0 18 18"><title>Link Icon</title><path d="M17.118 17.12c-.58.59-1.35.88-2.12.88s-1.54-.29-2.12-.88l-2.83-2.83c-.79-.79-1.04-1.9-.78-2.9l.91.91c.03.49.23.94.58 1.29l2.83 2.82c.37.38.88.59 1.41.59.53 0 1.04-.21 1.41-.59.78-.78.78-2.04 0-2.82l-2.82-2.83c-.35-.35-.8-.55-1.29-.58l-.91-.91c.25-.07.52-.1.78-.1.77 0 1.54.29 2.12.88l2.83 2.83a3 3 0 0 1 0 4.24zm-11.42-9.3l.91.91c-.25.07-.52.1-.78.1-.77 0-1.54-.29-2.12-.88L.878 5.12a3 3 0 0 1 0-4.24C1.458.29 2.228 0 2.998 0s1.54.29 2.12.88l2.83 2.83c.79.79 1.04 1.9.78 2.9l-.91-.91c-.03-.49-.23-.94-.58-1.29l-2.83-2.82c-.37-.38-.88-.59-1.41-.59-.53 0-1.04.21-1.41.59-.78.78-.78 2.04 0 2.82l2.82 2.83c.35.35.8.55 1.29.58zm-1.3-2.71a.513.513 0 0 1 0-.71c.2-.19.52-.19.71 0l8.49 8.49c.19.19.19.51 0 .71a.519.519 0 0 1-.71 0l-8.49-8.49z" id="Shape"/></symbol><symbol id="icon-linkedin" viewBox="0 0 18 18"><title>LinkedIn Icon</title><g id="linkedin"><path d="M15.34 15.34h-2.67v-4.18c0-1-.02-2.28-1.39-2.28-1.39 0-1.6 1.09-1.6 2.21v4.25H7.02V6.75h2.55v1.17h.04c.36-.67 1.23-1.39 2.53-1.39 2.7 0 3.2 1.78 3.2 4.1v4.71zM4.01 5.57a1.544 1.544 0 1 1 1.54-1.54c0 .85-.69 1.54-1.54 1.54zm-1.34 9.77V6.75h2.67v8.59H2.67zM16.67 0H1.33C.6 0 0 .58 0 1.3v15.4c0 .72.6 1.3 1.33 1.3h15.34c.73 0 1.33-.58 1.33-1.3V1.3c0-.72-.6-1.3-1.33-1.3z" id="Shape"/></g></symbol><symbol id="icon-outbound-link" viewBox="0 0 18 18"><title>Outbound Link Icon</title><path d="M10.802 0h6.49L18 .707v6.491l-1.004 1.004V1.711L6.707 12h-.705v-.707l10.287-10.29h-6.49L10.802 0zM0 3h6v1H1v13h13v-5h1v6H0V3z" id="Shape"/></symbol><symbol id="icon-search" viewBox="0 0 18 18"><title>Search Icon</title><path d="M8 15c-3.86 0-7-3.14-7-7s3.14-7 7-7 7 3.14 7 7-3.14 7-7 7zm5.99-1.71A7.945 7.945 0 0 0 16 8c0-4.42-3.58-8-8-8S0 3.58 0 8s3.58 8 8 8c2.03 0 3.88-.76 5.29-2.01l4 4.01.71-.71-4.01-4z" id="Shape"/></symbol><symbol id="icon-twitter" viewBox="0 0 18 18"><title>Twitter Icon</title><path d="M5.661 16.629c6.793 0 10.508-5.628 10.508-10.508 0-.16-.004-.319-.011-.477A7.503 7.503 0 0 0 18 3.732a7.351 7.351 0 0 1-2.12.581 3.703 3.703 0 0 0 1.623-2.043 7.382 7.382 0 0 1-2.345.896 3.693 3.693 0 0 0-6.293 3.368 10.486 10.486 0 0 1-7.612-3.858c-.317.546-.5 1.18-.5 1.857a3.69 3.69 0 0 0 1.643 3.073 3.67 3.67 0 0 1-1.672-.462l-.001.047a3.695 3.695 0 0 0 2.963 3.621 3.72 3.72 0 0 1-1.668.063 3.7 3.7 0 0 0 3.45 2.566A7.414 7.414 0 0 1 0 14.97a10.456 10.456 0 0 0 5.661 1.659" id="Fill-1"/></symbol><symbol id="logo" viewBox="0 0 55 24"><title>ivoh</title><path id="shape" d="M6.5 23.6H0v-.8l1.7-.3V12.2c0-1.3-.6-1.6-1.7-1.6v-.8l4.8-1.4v14.1l1.7.3v.8zM1.3 3.7c0-1.1.9-1.9 1.9-1.9s1.9.8 1.9 1.9c0 1.1-.9 1.9-1.9 1.9s-1.9-.7-1.9-1.9zm6.3 6.7v-.9l3.7-1.2 4.4 11.9 3.4-7.5c-.9-.4-1.8-1.3-1.8-2.4 0-1.1.7-2 1.9-2s1.9.9 1.9 2c0 1-.4 2.1-1 3.3l-4.8 10.1H14L9 11.3c-.1-.6-.5-.9-1.4-.9zm22.6 12.5c2.5 0 3.1-4 3.1-6.7 0-4.4-.9-6.8-3.1-6.8S27 11.7 27 16.2c0 4.2.7 6.7 3.2 6.7zm0 1.1c-4.1 0-6.7-3.3-6.7-7.8 0-4.2 2.7-7.8 6.7-7.8s6.7 3.7 6.7 7.8c-.1 3.5-2.6 7.8-6.7 7.8zm24.8-.4h-6.5v-.8l1.7-.3v-9.2c0-2.3-1.7-3.2-3-3.2-1.5 0-2.8 1.1-2.8 1.6v10.8l1.5.3v.8h-6.3v-.8l1.7-.3V4c0-1-.6-1.3-1.7-1.3v-.8L44.4 0v10.2c1.2-1.2 2.7-1.8 4.1-1.8 1.9 0 4.9 1.2 4.9 4.9v9.2l1.7.3v.8z"/></symbol></svg>